<mxfile host="app.diagrams.net" modified="2023-09-21T13:46:15.076Z" agent="Mozilla/5.0 (X11; Linux x86_64; rv:109.0) Gecko/20100101 Firefox/114.0" version="21.8.0" etag="VVD1YFTqVMZWdvp1Yxz7" type="github">
  <diagram name="PÃ¡gina-1" id="DtP9EpVU-KdbxEAtIL0a">
    <mxGraphModel>
      <root>
        <mxCell id="0" />
        <mxCell id="1" parent="0" />
      </root>
    </mxGraphModel>
  </diagram>
</mxfile>
